<?xml version="1.0" encoding="UTF-8"?>
<svg xmlns="http://www.w3.org/2000/svg" xmlns:xlink="http://www.w3.org/1999/xlink" width="24px" height="24px" viewBox="0 0 24 24" version="1.1">
<defs>
<radialGradient id="radial0" gradientUnits="userSpaceOnUse" cx="24" cy="10.009" fx="24" fy="10.009" r="32.252" gradientTransform="matrix(0.5,0,0,0.5,0,0)">
<stop offset="0" style="stop-color:rgb(54.901961%,61.960784%,100%);stop-opacity:1;"/>
<stop offset="0.368" style="stop-color:rgb(53.333333%,60.392157%,97.254902%);stop-opacity:1;"/>
<stop offset="0.889" style="stop-color:rgb(49.411765%,56.078431%,90.196078%);stop-opacity:1;"/>
<stop offset="1" style="stop-color:rgb(48.235294%,54.901961%,88.235294%);stop-opacity:1;"/>
</radialGradient>
<filter id="alpha" filterUnits="objectBoundingBox" x="0%" y="0%" width="100%" height="100%">
  <feColorMatrix type="matrix" in="SourceGraphic" values="0 0 0 0 1 0 0 0 0 1 0 0 0 0 1 0 0 0 1 0"/>
</filter>
<mask id="mask0">
  <g filter="url(#alpha)">
<rect x="0" y="0" width="24" height="24" style="fill:rgb(0%,0%,0%);fill-opacity:0.0509804;stroke:none;"/>
  </g>
</mask>
<clipPath id="clip1">
  <rect x="0" y="0" width="24" height="24"/>
</clipPath>
<g id="surface5" clip-path="url(#clip1)">
<path style=" stroke:none;fill-rule:nonzero;fill:rgb(0%,0%,0%);fill-opacity:1;" d="M 17.5 13 C 17.5 11.621094 16.492188 10.5 15.25 10.5 C 14.007812 10.5 13 11.621094 13 13 C 13 14.378906 14.007812 15.5 15.25 15.5 C 16.492188 15.5 17.5 14.378906 17.5 13 Z M 17.5 13 "/>
</g>
<mask id="mask1">
  <g filter="url(#alpha)">
<rect x="0" y="0" width="24" height="24" style="fill:rgb(0%,0%,0%);fill-opacity:0.0509804;stroke:none;"/>
  </g>
</mask>
<clipPath id="clip2">
  <rect x="0" y="0" width="24" height="24"/>
</clipPath>
<g id="surface8" clip-path="url(#clip2)">
<path style=" stroke:none;fill-rule:nonzero;fill:rgb(0%,0%,0%);fill-opacity:1;" d="M 17.25 13 C 17.25 11.757812 16.355469 10.75 15.25 10.75 C 14.144531 10.75 13.25 11.757812 13.25 13 C 13.25 14.242188 14.144531 15.25 15.25 15.25 C 16.355469 15.25 17.25 14.242188 17.25 13 Z M 17.25 13 "/>
</g>
<mask id="mask2">
  <g filter="url(#alpha)">
<rect x="0" y="0" width="24" height="24" style="fill:rgb(0%,0%,0%);fill-opacity:0.0509804;stroke:none;"/>
  </g>
</mask>
<clipPath id="clip3">
  <rect x="0" y="0" width="24" height="24"/>
</clipPath>
<g id="surface11" clip-path="url(#clip3)">
<path style=" stroke:none;fill-rule:nonzero;fill:rgb(0%,0%,0%);fill-opacity:1;" d="M 11 13 C 11 11.621094 9.992188 10.5 8.75 10.5 C 7.507812 10.5 6.5 11.621094 6.5 13 C 6.5 14.378906 7.507812 15.5 8.75 15.5 C 9.992188 15.5 11 14.378906 11 13 Z M 11 13 "/>
</g>
<mask id="mask3">
  <g filter="url(#alpha)">
<rect x="0" y="0" width="24" height="24" style="fill:rgb(0%,0%,0%);fill-opacity:0.0509804;stroke:none;"/>
  </g>
</mask>
<clipPath id="clip4">
  <rect x="0" y="0" width="24" height="24"/>
</clipPath>
<g id="surface14" clip-path="url(#clip4)">
<path style=" stroke:none;fill-rule:nonzero;fill:rgb(0%,0%,0%);fill-opacity:1;" d="M 10.75 13 C 10.75 11.757812 9.855469 10.75 8.75 10.75 C 7.644531 10.75 6.75 11.757812 6.75 13 C 6.75 14.242188 7.644531 15.25 8.75 15.25 C 9.855469 15.25 10.75 14.242188 10.75 13 Z M 10.75 13 "/>
</g>
</defs>
<g id="surface1">
<path style=" stroke:none;fill-rule:nonzero;fill:url(#radial0);" d="M 20.054688 6.074219 C 20.019531 6.023438 19.984375 5.984375 19.933594 5.949219 C 19.550781 5.660156 17.601562 4.277344 15.101562 4.011719 C 15.097656 4.007812 15.078125 4.007812 15.074219 4.007812 C 15.027344 4.007812 14.984375 4.035156 14.960938 4.078125 L 14.828125 4.347656 C 14.820312 4.363281 14.816406 4.382812 14.816406 4.402344 C 14.816406 4.457031 14.847656 4.503906 14.898438 4.519531 C 14.902344 4.523438 14.921875 4.527344 14.929688 4.527344 C 17.0625 5.042969 18.363281 5.972656 19.503906 7 C 17.480469 5.96875 15.484375 5 12 5 C 8.515625 5 6.519531 5.96875 4.496094 7 C 5.636719 5.972656 6.9375 5.042969 9.070312 4.527344 C 9.078125 4.527344 9.097656 4.523438 9.101562 4.519531 C 9.152344 4.503906 9.183594 4.457031 9.183594 4.402344 C 9.183594 4.382812 9.179688 4.363281 9.171875 4.347656 L 9.039062 4.078125 C 9.015625 4.035156 8.976562 4.007812 8.925781 4.007812 C 8.921875 4.007812 8.902344 4.007812 8.898438 4.011719 C 6.398438 4.277344 4.449219 5.660156 4.066406 5.949219 C 4.015625 5.984375 3.980469 6.023438 3.945312 6.074219 C 3.59375 6.628906 1.421875 10.269531 1 16.890625 C 0.996094 16.960938 1.019531 17.035156 1.066406 17.089844 C 3.363281 19.660156 6.660156 19.964844 7.363281 20 C 7.445312 20.003906 7.527344 19.96875 7.574219 19.902344 L 8.214844 19.046875 C 8.265625 18.980469 8.238281 18.886719 8.160156 18.855469 C 6.808594 18.363281 5.300781 17.507812 3.996094 16.003906 C 5.617188 17.226562 8.058594 18.5 12 18.5 C 15.941406 18.5 18.382812 17.226562 20.003906 16.003906 C 18.695312 17.507812 17.191406 18.363281 15.839844 18.855469 C 15.761719 18.886719 15.734375 18.980469 15.78125 19.046875 L 16.425781 19.902344 C 16.472656 19.96875 16.554688 20.003906 16.636719 20 C 17.339844 19.964844 20.636719 19.660156 22.929688 17.089844 C 22.980469 17.035156 23.003906 16.960938 23 16.890625 C 22.578125 10.269531 20.40625 6.628906 20.054688 6.074219 Z M 20.054688 6.074219 "/>
<use xlink:href="#surface5" mask="url(#mask0)"/>
<use xlink:href="#surface8" mask="url(#mask1)"/>
<path style=" stroke:none;fill-rule:nonzero;fill:rgb(100%,100%,100%);fill-opacity:1;" d="M 17 13 C 17 11.894531 16.214844 11 15.25 11 C 14.285156 11 13.5 11.894531 13.5 13 C 13.5 14.105469 14.285156 15 15.25 15 C 16.214844 15 17 14.105469 17 13 Z M 17 13 "/>
<use xlink:href="#surface11" mask="url(#mask2)"/>
<use xlink:href="#surface14" mask="url(#mask3)"/>
<path style=" stroke:none;fill-rule:nonzero;fill:rgb(100%,100%,100%);fill-opacity:1;" d="M 10.5 13 C 10.5 11.894531 9.714844 11 8.75 11 C 7.785156 11 7 11.894531 7 13 C 7 14.105469 7.785156 15 8.75 15 C 9.714844 15 10.5 14.105469 10.5 13 Z M 10.5 13 "/>
</g>
</svg>
