<?xml version="1.0" encoding="UTF-8"?>
<svg xmlns="http://www.w3.org/2000/svg" xmlns:xlink="http://www.w3.org/1999/xlink" width="24px" height="24px" viewBox="0 0 24 24" version="1.1">
<g id="surface1">
<path style=" stroke:none;fill-rule:nonzero;fill:rgb(94.509804%,96.078431%,96.862745%);fill-opacity:1;" d="M 3.609375 3.589844 L 20.390625 3.589844 L 20.390625 20.410156 L 3.609375 20.410156 Z M 3.609375 3.589844 "/>
<path style=" stroke:none;fill-rule:nonzero;fill:rgb(86.27451%,90.196078%,91.764706%);fill-opacity:1;" d="M 12 13.769531 L 20.390625 20.410156 L 20.390625 7.296875 Z M 12 13.769531 "/>
<path style=" stroke:none;fill-rule:nonzero;fill:rgb(97.254902%,26.666667%,21.568627%);fill-opacity:1;" d="M 21.085938 3.589844 L 20.390625 3.589844 L 12 10.230469 L 3.609375 3.589844 L 2.914062 3.589844 C 1.757812 3.589844 0.816406 4.53125 0.816406 5.691406 L 0.816406 18.308594 C 0.816406 19.46875 1.757812 20.410156 2.914062 20.410156 L 3.609375 20.410156 L 3.609375 7.296875 L 12 13.765625 L 20.390625 7.296875 L 20.390625 20.410156 L 21.085938 20.410156 C 22.242188 20.410156 23.183594 19.46875 23.183594 18.308594 L 23.183594 5.691406 C 23.183594 4.53125 22.242188 3.589844 21.085938 3.589844 Z M 21.085938 3.589844 "/>
</g>
</svg>
